<svg width="25" height="24" viewBox="0 0 25 24" fill="none" xmlns="http://www.w3.org/2000/svg">
<path d="M9.48407 2.06624C9.04876 2.19174 8.73502 2.37998 8.39383 2.71725C8.05656 3.0506 7.884 3.31727 7.75458 3.7016C7.7036 3.85847 7.31927 6.36839 6.66826 10.7999C5.77018 16.9571 5.66822 17.6983 5.68391 18.0316C5.71136 18.6709 5.95451 19.2121 6.41727 19.6788C6.7114 19.9729 7.0722 20.1964 7.43692 20.3102C7.63693 20.3729 17.0256 21.7769 18.0335 21.8945C18.3158 21.9259 18.7903 21.8553 19.1198 21.7337C19.8414 21.4631 20.461 20.7965 20.6689 20.0709C20.7042 19.9533 21.1826 16.7767 21.7356 13.0118C22.8454 5.42325 22.8062 5.80366 22.5984 5.18794C22.3278 4.39575 21.7552 3.8271 20.9669 3.57611C20.7551 3.50944 19.2257 3.27021 15.5628 2.73686C10.0919 1.94074 9.97821 1.92506 9.48407 2.06624ZM13.2725 8.36847C13.7313 8.52142 14.2764 8.91359 14.5706 9.30577L14.6568 9.42342L14.7823 9.34498C15.4333 8.95673 15.8608 8.81555 16.3902 8.81555C16.955 8.81555 17.3785 8.96065 17.8334 9.30969C18.4648 9.79206 18.8139 10.6666 18.6962 11.447C18.5354 12.4667 17.8883 13.1569 16.1746 14.1256C15.3039 14.6158 14.1156 15.1805 13.9117 15.2001C13.7352 15.2158 13.7235 15.208 13.394 14.9256C12.7901 14.4079 12.2489 13.8864 11.7038 13.2981C10.7665 12.2863 10.4527 11.8118 10.2802 11.1451C10.2057 10.8509 10.2057 10.2705 10.2802 9.97638C10.492 9.16066 11.2136 8.47828 12.0646 8.28611C12.4136 8.20768 12.8921 8.23905 13.2725 8.36847Z" fill="#C4C9DB"/>
<path d="M5.8867 3.38968C5.34942 3.42105 4.78861 3.46811 4.64351 3.49949C3.58464 3.73479 2.77676 4.64071 2.67088 5.71919C2.63166 6.11921 3.34149 19.8021 3.41601 20.0924C3.67876 21.1081 4.52978 21.865 5.55335 21.9944C5.72591 22.014 6.65536 21.9826 8.43583 21.8924C9.88295 21.8179 11.0712 21.7591 11.083 21.7552C11.0948 21.7552 10.581 21.6728 9.9457 21.5787C7.67894 21.2453 7.4554 21.2061 7.10636 21.0885C6.03965 20.7316 5.23177 19.861 4.92195 18.7394C4.73763 18.0609 4.72195 18.2021 5.82003 10.7194C6.36123 7.02905 6.83184 3.89951 6.86714 3.75832C6.89851 3.61714 6.93773 3.46419 6.94949 3.41321C6.96518 3.35439 6.95734 3.32693 6.92204 3.33085C6.89067 3.33478 6.4279 3.36223 5.8867 3.38968Z" fill="#C4C9DB"/>
</svg>
