<svg width="80" height="80" viewBox="0 0 80 80" fill="none" xmlns="http://www.w3.org/2000/svg">
<g clip-path="url(#clip0_20_297)">
<g filter="url(#filter0_d_20_297)">
<path d="M41.4 1.73334C40.9799 1.47183 40.4949 1.33322 40 1.33322C39.5051 1.33322 39.0202 1.47183 38.6 1.73334C31.5734 6.12001 0.640027 27.3467 4.30669 59.9867C4.59133 62.7092 5.40984 65.3489 6.71542 67.7549C8.021 70.1608 9.78804 72.2858 11.9155 74.0083C14.0429 75.7308 16.4891 77.0171 19.114 77.7935C21.739 78.57 24.4912 78.8214 27.2134 78.5333C33.2667 77.8133 35.8134 76 40 76C44.1867 76 46.7334 77.8133 52.7867 78.5333C55.5089 78.8214 58.2611 78.57 60.886 77.7935C63.511 77.0171 65.9571 75.7308 68.0846 74.0083C70.212 72.2858 71.979 70.1608 73.2846 67.7549C74.5902 65.3489 75.4087 62.7092 75.6934 59.9867C79.36 27.3467 48.4267 6.12001 41.4 1.73334ZM40 33.3333C37.8904 33.3333 35.8281 32.7077 34.0739 31.5357C32.3198 30.3636 30.9526 28.6977 30.1453 26.7486C29.338 24.7996 29.1267 22.6548 29.5383 20.5857C29.9499 18.5166 30.9658 16.616 32.4576 15.1242C33.9493 13.6324 35.8499 12.6165 37.9191 12.205C39.9882 11.7934 42.1329 12.0046 44.082 12.812C46.0311 13.6193 47.697 14.9865 48.869 16.7406C50.0411 18.4947 50.6667 20.557 50.6667 22.6667C50.6667 25.4956 49.5429 28.2088 47.5425 30.2091C45.5421 32.2095 42.829 33.3333 40 33.3333Z" fill="url(#paint0_linear_20_297)"/>
<path d="M4.804 59.9347L4.80357 59.9309C2.99057 43.7919 9.72674 30.456 17.8299 20.5822C25.934 10.7071 35.3726 4.33763 38.8644 2.15774C39.2052 1.94564 39.5986 1.83322 40 1.83322C40.4015 1.83322 40.7949 1.94564 41.1357 2.15774C44.6274 4.33763 54.066 10.7071 62.1702 20.5822C70.2733 30.456 77.0095 43.7919 75.1965 59.9309L75.1961 59.9347C74.9183 62.5918 74.1194 65.1682 72.8452 67.5164C71.5709 69.8646 69.8463 71.9386 67.7699 73.6197C65.6935 75.3009 63.3061 76.5563 60.7442 77.3141C58.1833 78.0716 55.4982 78.317 52.8425 78.0364C49.989 77.6968 47.9293 77.1118 46.0774 76.5859C45.9945 76.5624 45.9119 76.5389 45.8297 76.5156C43.9122 75.9721 42.1695 75.5 40 75.5C37.8305 75.5 36.0878 75.9721 34.1703 76.5156C34.0881 76.5389 34.0056 76.5624 33.9226 76.5859C32.0708 77.1118 30.0111 77.6968 27.1576 78.0364C24.5018 78.317 21.8167 78.0716 19.2558 77.3141C16.6939 76.5563 14.3065 75.3009 12.2301 73.6197C10.1537 71.9386 8.42912 69.8646 7.15488 67.5164C5.88064 65.1682 5.08178 62.5918 4.804 59.9347ZM33.7962 31.9514C35.6325 33.1784 37.7915 33.8333 40 33.8333C42.9616 33.8333 45.8019 32.6569 47.896 30.5627C49.9902 28.4685 51.1667 25.6283 51.1667 22.6667C51.1667 20.4581 50.5118 18.2992 49.2848 16.4628C48.0578 14.6265 46.3138 13.1952 44.2733 12.35C42.2329 11.5048 39.9876 11.2837 37.8215 11.7146C35.6554 12.1454 33.6657 13.209 32.104 14.7706C30.5423 16.3323 29.4788 18.322 29.0479 20.4882C28.6171 22.6543 28.8382 24.8995 29.6834 26.94C30.5285 28.9804 31.9598 30.7244 33.7962 31.9514Z" stroke="url(#paint1_linear_20_297)"/>
</g>
<path d="M58.3733 59.4933C58.3733 59.5067 58.36 59.5067 58.36 59.52L57.3333 58.6667C54.1696 56.1973 50.5947 54.306 46.7733 53.08C44.5814 52.387 42.2987 52.023 40 52C37.7012 52.023 35.4186 52.387 33.2266 53.08C29.4052 54.306 25.8303 56.1973 22.6666 58.6667L21.64 59.52C21.64 59.5067 21.6266 59.5067 21.6266 59.4933C21.4388 59.2587 21.3365 58.9672 21.3365 58.6667C21.3365 58.3661 21.4388 58.0746 21.6266 57.84C23.76 55.1333 31.1866 46.6667 40 46.6667C48.8133 46.6667 56.24 55.1333 58.3733 57.84C58.5611 58.0746 58.6635 58.3661 58.6635 58.6667C58.6635 58.9672 58.5611 59.2587 58.3733 59.4933Z" fill="url(#paint2_linear_20_297)"/>
<path d="M58.36 59.52C56.2 62.2533 48.7867 70.6667 40 70.6667C31.2133 70.6667 23.8 62.2533 21.64 59.52L22.6667 58.6667C25.8304 56.1973 29.4052 54.3061 33.2267 53.08C32.4659 54.2905 32.0434 55.6828 32.0032 57.112C31.963 58.5412 32.3065 59.955 32.998 61.2064C33.6895 62.4578 34.7038 63.5009 35.9352 64.2274C37.1667 64.9538 38.5703 65.337 40 65.337C41.4298 65.337 42.8334 64.9538 44.0648 64.2274C45.2962 63.5009 46.3105 62.4578 47.002 61.2064C47.6935 59.955 48.0371 58.5412 47.9969 57.112C47.9566 55.6828 47.5342 54.2905 46.7734 53.08C50.5948 54.3061 54.1697 56.1973 57.3333 58.6667L58.36 59.52Z" fill="#F9F9F9"/>
<path d="M48 57.3333C48.0006 58.5733 47.7129 59.7963 47.1597 60.906C46.6066 62.0157 45.803 62.9817 44.8126 63.7276C43.8221 64.4735 42.6718 64.9789 41.4525 65.204C40.2331 65.4291 38.9782 65.3678 37.7867 65.0247C36.5951 64.6817 35.4997 64.0664 34.5867 63.2273C33.6738 62.3883 32.9683 61.3486 32.5261 60.1902C32.0839 59.0318 31.917 57.7865 32.0386 56.5526C32.1601 55.3186 32.5669 54.1298 33.2267 53.08C35.4186 52.387 37.7012 52.023 40 52C42.2988 52.023 44.5814 52.387 46.7733 53.08C47.5755 54.3536 48.0008 55.8282 48 57.3333Z" fill="url(#paint3_linear_20_297)"/>
<path d="M40 42.6667C39.6464 42.6667 39.3073 42.5262 39.0572 42.2762C38.8072 42.0261 38.6667 41.687 38.6667 41.3333V38.6667C38.6667 38.3131 38.8072 37.9739 39.0572 37.7239C39.3073 37.4738 39.6464 37.3333 40 37.3333C40.3536 37.3333 40.6928 37.4738 40.9428 37.7239C41.1929 37.9739 41.3334 38.3131 41.3334 38.6667V41.3333C41.3334 41.687 41.1929 42.0261 40.9428 42.2762C40.6928 42.5262 40.3536 42.6667 40 42.6667Z" fill="url(#paint4_linear_20_297)"/>
<path d="M31.148 44.6667C30.9138 44.6669 30.6836 44.6054 30.4806 44.4884C30.2777 44.3713 30.1092 44.2029 29.992 44L21.1787 28.748C21.0898 28.5963 21.0317 28.4285 21.0079 28.2543C20.9841 28.0801 20.995 27.9029 21.0399 27.7329C21.0848 27.5629 21.163 27.4035 21.2698 27.2638C21.3766 27.1241 21.51 27.0069 21.6623 26.919C21.8145 26.8311 21.9827 26.7741 22.1571 26.7515C22.3315 26.7288 22.5086 26.7409 22.6783 26.7869C22.848 26.833 23.0069 26.9122 23.1459 27.0199C23.2848 27.1277 23.4011 27.2618 23.488 27.4147L32.3014 42.6667C32.4183 42.8693 32.4799 43.0991 32.48 43.333C32.4801 43.5669 32.4186 43.7968 32.3017 43.9994C32.1848 44.2021 32.0167 44.3704 31.8142 44.4875C31.6117 44.6047 31.382 44.6664 31.148 44.6667Z" fill="url(#paint5_linear_20_297)"/>
<path d="M22.8787 50.12C22.6446 50.1205 22.4145 50.0589 22.212 49.9413L11.344 43.6613C11.0403 43.4833 10.8193 43.1923 10.7293 42.8519C10.6393 42.5115 10.6876 42.1493 10.8636 41.8444C11.0397 41.5395 11.3292 41.3166 11.669 41.2243C12.0088 41.1321 12.3713 41.178 12.6773 41.352L23.5453 47.632C23.7995 47.7788 23.9982 48.0053 24.1105 48.2765C24.2228 48.5476 24.2425 48.8483 24.1665 49.1318C24.0906 49.4153 23.9232 49.6658 23.6903 49.8445C23.4575 50.0231 23.1722 50.12 22.8787 50.12Z" fill="url(#paint6_linear_20_297)"/>
<path d="M57.1214 50.12C56.8279 50.12 56.5426 50.0231 56.3097 49.8445C56.0769 49.6658 55.9095 49.4153 55.8335 49.1318C55.7576 48.8483 55.7773 48.5476 55.8896 48.2765C56.0019 48.0053 56.2005 47.7788 56.4547 47.632L67.3467 41.3333C67.6528 41.1593 68.0153 41.1134 68.3551 41.2057C68.6948 41.2979 68.9843 41.5208 69.1604 41.8257C69.3364 42.1307 69.3847 42.4928 69.2947 42.8332C69.2048 43.1736 68.9838 43.4646 68.68 43.6427L57.7867 49.936C57.5851 50.0551 57.3555 50.1186 57.1214 50.12Z" fill="url(#paint7_linear_20_297)"/>
<path d="M48.852 44.6667C48.6181 44.6664 48.3883 44.6047 48.1858 44.4875C47.9833 44.3704 47.8152 44.2021 47.6983 43.9994C47.5814 43.7968 47.52 43.5669 47.52 43.333C47.5201 43.0991 47.5817 42.8693 47.6986 42.6667L56.512 27.4C56.6901 27.0963 56.981 26.8753 57.3214 26.7853C57.6618 26.6953 58.024 26.7436 58.3289 26.9196C58.6338 27.0957 58.8567 27.3852 58.949 27.725C59.0412 28.0648 58.9953 28.4273 58.8213 28.7333L50.008 44C49.8909 44.2029 49.7223 44.3713 49.5194 44.4884C49.3164 44.6054 49.0863 44.6669 48.852 44.6667Z" fill="url(#paint8_linear_20_297)"/>
</g>
<defs>
<filter id="filter0_d_20_297" x="0.00592041" y="-0.666779" width="79.9882" height="85.3157" filterUnits="userSpaceOnUse" color-interpolation-filters="sRGB">
<feFlood flood-opacity="0" result="BackgroundImageFix"/>
<feColorMatrix in="SourceAlpha" type="matrix" values="0 0 0 0 0 0 0 0 0 0 0 0 0 0 0 0 0 0 127 0" result="hardAlpha"/>
<feOffset dy="2"/>
<feGaussianBlur stdDeviation="2"/>
<feComposite in2="hardAlpha" operator="out"/>
<feColorMatrix type="matrix" values="0 0 0 0 0.0980392 0 0 0 0 0.109804 0 0 0 0 0.164706 0 0 0 0.4 0"/>
<feBlend mode="normal" in2="BackgroundImageFix" result="effect1_dropShadow_20_297"/>
<feBlend mode="normal" in="SourceGraphic" in2="effect1_dropShadow_20_297" result="shape"/>
</filter>
<linearGradient id="paint0_linear_20_297" x1="40" y1="1.33322" x2="40" y2="78.649" gradientUnits="userSpaceOnUse">
<stop stop-color="#0B0D16"/>
<stop offset="1" stop-color="#242738"/>
</linearGradient>
<linearGradient id="paint1_linear_20_297" x1="40" y1="1.33322" x2="40" y2="78.649" gradientUnits="userSpaceOnUse">
<stop stop-color="#F9F9F9" stop-opacity="0.1"/>
<stop offset="1" stop-color="#F9F9F9" stop-opacity="0.15"/>
</linearGradient>
<linearGradient id="paint2_linear_20_297" x1="58.6635" y1="53.0746" x2="21.3365" y2="53.0745" gradientUnits="userSpaceOnUse">
<stop stop-color="#C64A4F"/>
<stop offset="1" stop-color="#B52B31"/>
</linearGradient>
<linearGradient id="paint3_linear_20_297" x1="32" y1="58.6685" x2="48" y2="58.6685" gradientUnits="userSpaceOnUse">
<stop stop-color="#3A408E"/>
<stop offset="1" stop-color="#6069D7"/>
</linearGradient>
<linearGradient id="paint4_linear_20_297" x1="41.3334" y1="39.9922" x2="38.6667" y2="39.9922" gradientUnits="userSpaceOnUse">
<stop stop-color="#C64A4F"/>
<stop offset="1" stop-color="#B52B31"/>
</linearGradient>
<linearGradient id="paint5_linear_20_297" x1="32.48" y1="35.6774" x2="20.9956" y2="35.6774" gradientUnits="userSpaceOnUse">
<stop stop-color="#C64A4F"/>
<stop offset="1" stop-color="#B52B31"/>
</linearGradient>
<linearGradient id="paint6_linear_20_297" x1="24.212" y1="45.6359" x2="10.685" y2="45.6358" gradientUnits="userSpaceOnUse">
<stop stop-color="#C64A4F"/>
<stop offset="1" stop-color="#B52B31"/>
</linearGradient>
<linearGradient id="paint7_linear_20_297" x1="69.339" y1="45.6265" x2="55.7881" y2="45.6265" gradientUnits="userSpaceOnUse">
<stop stop-color="#C64A4F"/>
<stop offset="1" stop-color="#B52B31"/>
</linearGradient>
<linearGradient id="paint8_linear_20_297" x1="58.9956" y1="35.6777" x2="47.52" y2="35.6777" gradientUnits="userSpaceOnUse">
<stop stop-color="#C64A4F"/>
<stop offset="1" stop-color="#B52B31"/>
</linearGradient>
<clipPath id="clip0_20_297">
<rect width="80" height="80" fill="white"/>
</clipPath>
</defs>
</svg>
