<svg width="64" height="64" viewBox="0 0 64 64" fill="none" xmlns="http://www.w3.org/2000/svg">
<path d="M32 1.28003C23.296 1.28003 16.384 8.19203 16.384 16.896V23.808C12.544 23.808 9.47205 27.136 9.47205 30.976V55.552C9.47205 59.392 12.8 62.72 16.64 62.72H47.36C51.2 62.72 54.528 59.392 54.528 55.552V30.976C54.528 27.136 51.456 24.064 47.616 23.808V16.896C47.616 8.19203 40.704 1.28003 32 1.28003ZM36.352 50.688C36.352 51.2 36.352 51.456 36.096 51.968C35.84 52.224 35.328 52.48 35.072 52.48H28.928C28.416 52.48 28.16 52.224 27.904 51.968C27.648 51.712 27.392 51.2 27.648 50.688L28.672 44.032C27.392 43.008 26.624 41.472 26.624 39.936C26.624 36.864 28.928 34.56 32 34.56C34.816 34.56 37.376 36.864 37.376 39.936C37.376 41.472 36.608 43.008 35.328 44.032L36.352 50.688ZM42.496 23.808H21.504V16.896C21.504 11.008 26.112 6.40003 32 6.40003C37.888 6.40003 42.496 11.008 42.496 16.896V23.808Z" fill="#F9F9F9"/>
</svg>
