<svg width="24" height="24" viewBox="0 0 24 24" fill="none" xmlns="http://www.w3.org/2000/svg">
<path opacity="0.993" fill-rule="evenodd" clip-rule="evenodd" d="M12.0649 2C12.2472 2 12.4295 2 12.6118 2C12.9047 2.13028 13.0935 2.35163 13.1782 2.66406C13.1978 3.01538 13.2042 3.36695 13.1978 3.71875C15.5154 4.1389 17.0844 5.45401 17.9048 7.66407C18.0562 8.13438 18.1473 8.61618 18.1782 9.10938C18.1912 10.1901 18.2043 11.2708 18.2173 12.3516C18.3432 13.5535 18.799 14.6082 19.5845 15.5156C19.873 15.8042 20.1595 16.0907 20.4439 16.375C20.8576 17.1579 20.7339 17.8415 20.0728 18.4258C19.8903 18.5366 19.6949 18.6147 19.4868 18.6602C14.7212 18.6862 9.95557 18.6862 5.18994 18.6602C4.25564 18.3871 3.87153 17.7686 4.0376 16.8047C4.09199 16.6568 4.1571 16.5136 4.23291 16.375C4.64998 15.984 5.04061 15.5673 5.40478 15.125C6.00211 14.2969 6.35365 13.3725 6.45947 12.3516C6.47248 11.2708 6.48553 10.1901 6.49853 9.10938C6.75291 6.70715 7.98338 5.02094 10.1899 4.05078C10.6092 3.89715 11.0388 3.78648 11.479 3.71875C11.4725 3.36695 11.479 3.01538 11.4985 2.66406C11.5833 2.35163 11.7721 2.13028 12.0649 2Z" fill="#F9F9F9"/>
<path opacity="0.984" fill-rule="evenodd" clip-rule="evenodd" d="M12.8438 22C12.5052 22 12.1667 22 11.8281 22C10.4886 21.6892 9.62922 20.8689 9.25 19.5391C11.3073 19.487 13.3646 19.487 15.4219 19.5391C15.0427 20.8689 14.1833 21.6892 12.8438 22Z" fill="#F9F9F9"/>
</svg>
