<svg width="24" height="24" viewBox="0 0 24 24" fill="none" xmlns="http://www.w3.org/2000/svg">
<path d="M22.86 7.14278C22.6908 6.99527 22.4816 6.90136 22.2589 6.87298C22.0362 6.8446 21.8102 6.88304 21.6094 6.98341L16.9022 9.32716L12.9722 2.79935C12.8712 2.63184 12.7286 2.49328 12.5582 2.39709C12.3879 2.30091 12.1956 2.25037 12 2.25037C11.8044 2.25037 11.6121 2.30091 11.4418 2.39709C11.2714 2.49328 11.1288 2.63184 11.0278 2.79935L7.09781 9.32997L2.3925 6.98622C2.19219 6.88674 1.96697 6.84864 1.74509 6.8767C1.52321 6.90475 1.31455 6.99772 1.14531 7.14392C0.976076 7.29013 0.853789 7.48307 0.7938 7.69852C0.733812 7.91397 0.738794 8.14234 0.808121 8.35497L4.27687 18.9825C4.31175 19.0892 4.37016 19.1868 4.44779 19.268C4.52542 19.3491 4.62029 19.4118 4.7254 19.4514C4.83051 19.491 4.94317 19.5065 5.05506 19.4967C5.16695 19.487 5.27522 19.4522 5.37187 19.395C5.39531 19.3809 7.7925 18 12 18C16.2075 18 18.6047 19.3809 18.6262 19.394C18.7229 19.4518 18.8314 19.4871 18.9436 19.4972C19.0557 19.5073 19.1687 19.492 19.2742 19.4525C19.3797 19.4129 19.4749 19.3502 19.5527 19.2688C19.6306 19.1874 19.6892 19.0896 19.7241 18.9825L23.1928 8.35778C23.2641 8.14509 23.2706 7.916 23.2113 7.69964C23.152 7.48328 23.0297 7.28944 22.86 7.14278ZM16.485 14.7C16.4544 14.8735 16.3637 15.0307 16.2288 15.144C16.0939 15.2573 15.9234 15.3195 15.7472 15.3197C15.7032 15.3196 15.6593 15.3158 15.6159 15.3084C13.2203 14.8972 10.7722 14.8972 8.37656 15.3084C8.27954 15.3255 8.18011 15.3234 8.08393 15.302C7.98775 15.2807 7.89672 15.2407 7.81602 15.1842C7.65304 15.0701 7.54206 14.8959 7.5075 14.7C7.47294 14.504 7.51762 14.3024 7.63173 14.1394C7.74583 13.9764 7.92001 13.8655 8.11593 13.8309C10.684 13.3897 13.3085 13.3897 15.8766 13.8309C15.9739 13.8476 16.067 13.8833 16.1505 13.936C16.2341 13.9888 16.3063 14.0575 16.3632 14.1382C16.4201 14.219 16.4605 14.3102 16.482 14.4066C16.5036 14.503 16.5058 14.6027 16.4887 14.7H16.485Z" fill="#F9F9F9"/>
</svg>
