<svg width="24" height="24" viewBox="0 0 24 24" fill="none" xmlns="http://www.w3.org/2000/svg">
<path d="M12 17C12.2833 17 12.521 16.904 12.713 16.712C12.905 16.52 13.0007 16.2827 13 16V12C13 11.7167 12.904 11.4794 12.712 11.288C12.52 11.0967 12.2827 11.0007 12 11C11.7167 11 11.4793 11.096 11.288 11.288C11.0967 11.48 11.0007 11.7174 11 12V16C11 16.2834 11.096 16.521 11.288 16.713C11.48 16.905 11.7173 17.0007 12 17ZM12 9.00002C12.2833 9.00002 12.521 8.90402 12.713 8.71202C12.905 8.52002 13.0007 8.28269 13 8.00002C13 7.71669 12.904 7.47936 12.712 7.28802C12.52 7.09669 12.2827 7.00069 12 7.00002C11.7167 7.00002 11.4793 7.09602 11.288 7.28802C11.0967 7.48002 11.0007 7.71736 11 8.00002C11 8.28336 11.096 8.52102 11.288 8.71302C11.48 8.90502 11.7173 9.00069 12 9.00002ZM12 21.9C11.8833 21.9 11.775 21.8917 11.675 21.875C11.575 21.8584 11.475 21.8334 11.375 21.8C9.125 21.05 7.33333 19.6624 6 17.637C4.66667 15.6117 4 13.4327 4 11.1V6.37502C4 5.95836 4.121 5.58336 4.363 5.25002C4.605 4.91669 4.91733 4.67502 5.3 4.52502L11.3 2.27502C11.5333 2.19169 11.7667 2.15002 12 2.15002C12.2333 2.15002 12.4667 2.19169 12.7 2.27502L18.7 4.52502C19.0833 4.67502 19.396 4.91669 19.638 5.25002C19.88 5.58336 20.0007 5.95836 20 6.37502V11.1C20 13.4334 19.3333 15.6127 18 17.638C16.6667 19.6634 14.875 21.0507 12.625 21.8C12.525 21.8334 12.425 21.8584 12.325 21.875C12.225 21.8917 12.1167 21.9 12 21.9Z" fill="#F9F9F9"/>
</svg>
