<svg width="25" height="24" viewBox="0 0 25 24" fill="none" xmlns="http://www.w3.org/2000/svg">
<path fill-rule="evenodd" clip-rule="evenodd" d="M6.34375 2C5.05269 2 4 3.05269 4 4.34375V19.6562C4 20.9473 5.05269 22 6.34375 22H17.8281C19.1192 22 20.1719 20.9473 20.1719 19.6562V8.17172C20.1719 7.44529 19.8831 6.74813 19.3694 6.23447L15.9374 2.80246C15.4237 2.28879 14.7267 2 14.0002 2H6.34375ZM8.25758 7.74211H12.0857C12.1421 7.74211 12.198 7.75322 12.2501 7.77481C12.3023 7.79641 12.3496 7.82806 12.3895 7.86796C12.4295 7.90786 12.4611 7.95523 12.4827 8.00736C12.5043 8.05949 12.5154 8.11537 12.5154 8.1718C12.5154 8.28575 12.4701 8.39502 12.3895 8.47559C12.3089 8.55616 12.1997 8.60142 12.0857 8.60141L8.25758 8.60149C8.20116 8.60149 8.14528 8.59038 8.09315 8.56879C8.04101 8.54719 7.99364 8.51554 7.95374 8.47564C7.91384 8.43574 7.88219 8.38837 7.8606 8.33624C7.83901 8.2841 7.82789 8.22823 7.8279 8.1718C7.82789 8.11537 7.83901 8.0595 7.8606 8.00736C7.88219 7.95523 7.91384 7.90786 7.95374 7.86796C7.99364 7.82806 8.04101 7.79641 8.09315 7.77482C8.14528 7.75322 8.20116 7.74211 8.25758 7.74211ZM8.25758 11.5702H15.9138C16.0278 11.5702 16.1371 11.6155 16.2177 11.6961C16.2983 11.7767 16.3435 11.886 16.3435 11.9999C16.3435 12.1139 16.2983 12.2232 16.2177 12.3038C16.1371 12.3843 16.0278 12.4296 15.9138 12.4296H8.25758C8.14362 12.4296 8.03433 12.3843 7.95375 12.3038C7.87317 12.2232 7.8279 12.1139 7.8279 11.9999C7.8279 11.886 7.87317 11.7767 7.95375 11.6961C8.03433 11.6155 8.14362 11.5702 8.25758 11.5702ZM8.25774 15.3982H15.9139C15.9703 15.3982 16.0262 15.4093 16.0784 15.4309C16.1305 15.4525 16.1779 15.4841 16.2178 15.524C16.2577 15.5639 16.2894 15.6113 16.311 15.6634C16.3326 15.7156 16.3437 15.7715 16.3437 15.8279C16.3437 15.8843 16.3326 15.9402 16.311 15.9923C16.2894 16.0445 16.2577 16.0919 16.2178 16.1318C16.1779 16.1717 16.1305 16.2033 16.0784 16.2249C16.0262 16.2465 15.9703 16.2576 15.9139 16.2576H8.25774C8.2013 16.2576 8.14542 16.2465 8.09328 16.2249C8.04114 16.2033 7.99376 16.1717 7.95385 16.1318C7.91394 16.0919 7.88229 16.0445 7.86069 15.9923C7.83909 15.9402 7.82797 15.8843 7.82797 15.8279C7.82797 15.7715 7.83909 15.7156 7.86069 15.6634C7.88229 15.6113 7.91394 15.5639 7.95385 15.524C7.99376 15.4841 8.04114 15.4525 8.09328 15.4309C8.14542 15.4093 8.20131 15.3982 8.25774 15.3982Z" fill="#C4C9DB"/>
</svg>
