<svg width="25" height="24" viewBox="0 0 25 24" fill="none" xmlns="http://www.w3.org/2000/svg">
<path d="M12.3386 2C6.81165 2 2.33856 6.4725 2.33856 12C2.33856 17.5269 6.81106 22 12.3386 22C17.8655 22 22.3386 17.5275 22.3386 12C22.3386 6.47309 17.8661 2 12.3386 2ZM13.0362 16.3721C13.0362 16.7574 12.7238 17.0698 12.3386 17.0698C11.9533 17.0698 11.6409 16.7574 11.6409 16.3721V10.6512C11.6409 10.2659 11.9533 9.95352 12.3386 9.95352C12.7238 9.95352 13.0362 10.2659 13.0362 10.6512V16.3721ZM13.0362 8.46512C13.0362 8.85043 12.7238 9.16277 12.3386 9.16277C11.9533 9.16277 11.6409 8.85039 11.6409 8.46512V7.62789C11.6409 7.24258 11.9533 6.93023 12.3386 6.93023C12.7238 6.93023 13.0362 7.24262 13.0362 7.62789V8.46512Z" fill="#C4C9DB"/>
</svg>
